<svg id="visual" viewBox="0 0 900 450" width="900" height="450" xmlns="http://www.w3.org/2000/svg" xmlns:xlink="http://www.w3.org/1999/xlink" version="1.1"><path d="M0 51L13.7 52.5C27.3 54 54.7 57 82 63C109.3 69 136.7 78 163.8 75.7C191 73.3 218 59.7 245.2 51.3C272.3 43 299.7 40 327 43.8C354.3 47.7 381.7 58.3 409 65.2C436.3 72 463.7 75 491 78.7C518.3 82.3 545.7 86.7 573 82.2C600.3 77.7 627.7 64.3 654.8 61.3C682 58.3 709 65.7 736.2 61.8C763.3 58 790.7 43 818 37.8C845.3 32.7 872.7 37.3 886.3 39.7L900 42L900 0L886.3 0C872.7 0 845.3 0 818 0C790.7 0 763.3 0 736.2 0C709 0 682 0 654.8 0C627.7 0 600.3 0 573 0C545.7 0 518.3 0 491 0C463.7 0 436.3 0 409 0C381.7 0 354.3 0 327 0C299.7 0 272.3 0 245.2 0C218 0 191 0 163.8 0C136.7 0 109.3 0 82 0C54.7 0 27.3 0 13.7 0L0 0Z" fill="#1c1d20"></path><path d="M0 132L13.7 140.2C27.3 148.3 54.7 164.7 82 164.7C109.3 164.7 136.7 148.3 163.8 139.3C191 130.3 218 128.7 245.2 129.3C272.3 130 299.7 133 327 134.5C354.3 136 381.7 136 409 138.3C436.3 140.7 463.7 145.3 491 145.3C518.3 145.3 545.7 140.7 573 136.2C600.3 131.7 627.7 127.3 654.8 126.7C682 126 709 129 736.2 123C763.3 117 790.7 102 818 101.2C845.3 100.3 872.7 113.7 886.3 120.3L900 127L900 40L886.3 37.7C872.7 35.3 845.3 30.7 818 35.8C790.7 41 763.3 56 736.2 59.8C709 63.7 682 56.3 654.8 59.3C627.7 62.3 600.3 75.7 573 80.2C545.7 84.7 518.3 80.3 491 76.7C463.7 73 436.3 70 409 63.2C381.7 56.3 354.3 45.7 327 41.8C299.7 38 272.3 41 245.2 49.3C218 57.7 191 71.3 163.8 73.7C136.7 76 109.3 67 82 61C54.7 55 27.3 52 13.7 50.5L0 49Z" fill="#1f2125"></path><path d="M0 217L13.7 222.3C27.3 227.7 54.7 238.3 82 254.2C109.3 270 136.7 291 163.8 303C191 315 218 318 245.2 313.5C272.3 309 299.7 297 327 282C354.3 267 381.7 249 409 242.2C436.3 235.3 463.7 239.7 491 256.2C518.3 272.7 545.7 301.3 573 312.7C600.3 324 627.7 318 654.8 300C682 282 709 252 736.2 249C763.3 246 790.7 270 818 275.2C845.3 280.3 872.7 266.7 886.3 259.8L900 253L900 125L886.3 118.3C872.7 111.7 845.3 98.3 818 99.2C790.7 100 763.3 115 736.2 121C709 127 682 124 654.8 124.7C627.7 125.3 600.3 129.7 573 134.2C545.7 138.7 518.3 143.3 491 143.3C463.7 143.3 436.3 138.7 409 136.3C381.7 134 354.3 134 327 132.5C299.7 131 272.3 128 245.2 127.3C218 126.7 191 128.3 163.8 137.3C136.7 146.3 109.3 162.7 82 162.7C54.7 162.7 27.3 146.3 13.7 138.2L0 130Z" fill="#23252a"></path><path d="M0 402L13.7 401.2C27.3 400.3 54.7 398.7 82 397.2C109.3 395.7 136.7 394.3 163.8 392.8C191 391.3 218 389.7 245.2 387.3C272.3 385 299.7 382 327 387.3C354.3 392.7 381.7 406.3 409 405.7C436.3 405 463.7 390 491 385.5C518.3 381 545.7 387 573 394.5C600.3 402 627.7 411 654.8 414C682 417 709 414 736.2 406.5C763.3 399 790.7 387 818 383.2C845.3 379.3 872.7 383.7 886.3 385.8L900 388L900 251L886.3 257.8C872.7 264.7 845.3 278.3 818 273.2C790.7 268 763.3 244 736.2 247C709 250 682 280 654.8 298C627.7 316 600.3 322 573 310.7C545.7 299.3 518.3 270.7 491 254.2C463.7 237.7 436.3 233.3 409 240.2C381.7 247 354.3 265 327 280C299.7 295 272.3 307 245.2 311.5C218 316 191 313 163.8 301C136.7 289 109.3 268 82 252.2C54.7 236.3 27.3 225.7 13.7 220.3L0 215Z" fill="#33363c"></path><path d="M0 451L13.7 451C27.3 451 54.7 451 82 451C109.3 451 136.7 451 163.8 451C191 451 218 451 245.2 451C272.3 451 299.7 451 327 451C354.3 451 381.7 451 409 451C436.3 451 463.7 451 491 451C518.3 451 545.7 451 573 451C600.3 451 627.7 451 654.8 451C682 451 709 451 736.2 451C763.3 451 790.7 451 818 451C845.3 451 872.7 451 886.3 451L900 451L900 386L886.3 383.8C872.7 381.7 845.3 377.3 818 381.2C790.7 385 763.3 397 736.2 404.5C709 412 682 415 654.8 412C627.7 409 600.3 400 573 392.5C545.7 385 518.3 379 491 383.5C463.7 388 436.3 403 409 403.7C381.7 404.3 354.3 390.7 327 385.3C299.7 380 272.3 383 245.2 385.3C218 387.7 191 389.3 163.8 390.8C136.7 392.3 109.3 393.7 82 395.2C54.7 396.7 27.3 398.3 13.7 399.2L0 400Z" fill="#44474f"></path></svg>