<svg id="visual" viewBox="0 0 960 540" width="960" height="540" xmlns="http://www.w3.org/2000/svg" xmlns:xlink="http://www.w3.org/1999/xlink" version="1.1"><path d="M0 60L14.5 61.8C29 63.7 58 67.3 87.2 74.7C116.3 82 145.7 93 174.8 90.3C204 87.7 233 71.3 262 61.3C291 51.3 320 47.7 349 52.2C378 56.7 407 69.3 436.2 77.5C465.3 85.7 494.7 89.3 523.8 93.8C553 98.3 582 103.7 611 98.2C640 92.7 669 76.3 698 72.7C727 69 756 78 785.2 73.5C814.3 69 843.7 51 872.8 44.8C902 38.7 931 44.3 945.5 47.2L960 50L960 0L945.5 0C931 0 902 0 872.8 0C843.7 0 814.3 0 785.2 0C756 0 727 0 698 0C669 0 640 0 611 0C582 0 553 0 523.8 0C494.7 0 465.3 0 436.2 0C407 0 378 0 349 0C320 0 291 0 262 0C233 0 204 0 174.8 0C145.7 0 116.3 0 87.2 0C58 0 29 0 14.5 0L0 0Z" fill="#1c1d20"></path><path d="M0 158L14.5 167.8C29 177.7 58 197.3 87.2 197.3C116.3 197.3 145.7 177.7 174.8 166.8C204 156 233 154 262 154.8C291 155.7 320 159.3 349 161.2C378 163 407 163 436.2 165.7C465.3 168.3 494.7 173.7 523.8 173.7C553 173.7 582 168.3 611 163C640 157.7 669 152.3 698 151.5C727 150.7 756 154.3 785.2 147.2C814.3 140 843.7 122 872.8 121C902 120 931 136 945.5 144L960 152L960 48L945.5 45.2C931 42.3 902 36.7 872.8 42.8C843.7 49 814.3 67 785.2 71.5C756 76 727 67 698 70.7C669 74.3 640 90.7 611 96.2C582 101.7 553 96.3 523.8 91.8C494.7 87.3 465.3 83.7 436.2 75.5C407 67.3 378 54.7 349 50.2C320 45.7 291 49.3 262 59.3C233 69.3 204 85.7 174.8 88.3C145.7 91 116.3 80 87.2 72.7C58 65.3 29 61.7 14.5 59.8L0 58Z" fill="#2b2d33"></path><path d="M0 260L14.5 266.3C29 272.7 58 285.3 87.2 304.3C116.3 323.3 145.7 348.7 174.8 363C204 377.3 233 380.7 262 375.2C291 369.7 320 355.3 349 337.3C378 319.3 407 297.7 436.2 289.7C465.3 281.7 494.7 287.3 523.8 307.2C553 327 582 361 611 374.5C640 388 669 381 698 359.5C727 338 756 302 785.2 298.3C814.3 294.7 843.7 323.3 872.8 329.5C902 335.7 931 319.3 945.5 311.2L960 303L960 150L945.5 142C931 134 902 118 872.8 119C843.7 120 814.3 138 785.2 145.2C756 152.3 727 148.7 698 149.5C669 150.3 640 155.7 611 161C582 166.3 553 171.7 523.8 171.7C494.7 171.7 465.3 166.3 436.2 163.7C407 161 378 161 349 159.2C320 157.3 291 153.7 262 152.8C233 152 204 154 174.8 164.8C145.7 175.7 116.3 195.3 87.2 195.3C58 195.3 29 175.7 14.5 165.8L0 156Z" fill="#44474f"></path><path d="M0 482L14.5 481C29 480 58 478 87.2 476.2C116.3 474.3 145.7 472.7 174.8 470.8C204 469 233 467 262 464.3C291 461.7 320 458.3 349 464.7C378 471 407 487 436.2 486C465.3 485 494.7 467 523.8 461.7C553 456.3 582 463.7 611 472.7C640 481.7 669 492.3 698 495.8C727 499.3 756 495.7 785.2 486.7C814.3 477.7 843.7 463.3 872.8 458.8C902 454.3 931 459.7 945.5 462.3L960 465L960 301L945.5 309.2C931 317.3 902 333.7 872.8 327.5C843.7 321.3 814.3 292.7 785.2 296.3C756 300 727 336 698 357.5C669 379 640 386 611 372.5C582 359 553 325 523.8 305.2C494.7 285.3 465.3 279.7 436.2 287.7C407 295.7 378 317.3 349 335.3C320 353.3 291 367.7 262 373.2C233 378.7 204 375.3 174.8 361C145.7 346.7 116.3 321.3 87.2 302.3C58 283.3 29 270.7 14.5 264.3L0 258Z" fill="#2b2d33"></path><path d="M0 541L14.5 541C29 541 58 541 87.2 541C116.3 541 145.7 541 174.8 541C204 541 233 541 262 541C291 541 320 541 349 541C378 541 407 541 436.2 541C465.3 541 494.7 541 523.8 541C553 541 582 541 611 541C640 541 669 541 698 541C727 541 756 541 785.2 541C814.3 541 843.7 541 872.8 541C902 541 931 541 945.5 541L960 541L960 463L945.5 460.3C931 457.7 902 452.3 872.8 456.8C843.7 461.3 814.3 475.7 785.2 484.7C756 493.7 727 497.3 698 493.8C669 490.3 640 479.7 611 470.7C582 461.7 553 454.3 523.8 459.7C494.7 465 465.3 483 436.2 484C407 485 378 469 349 462.7C320 456.3 291 459.7 262 462.3C233 465 204 467 174.8 468.8C145.7 470.7 116.3 472.3 87.2 474.2C58 476 29 478 14.5 479L0 480Z" fill="#1c1d20"></path></svg>